<?xml version="1.0" standalone="no"?>
<!DOCTYPE svg PUBLIC "-//W3C//DTD SVG 20010904//EN"
 "http://www.w3.org/TR/2001/REC-SVG-20010904/DTD/svg10.dtd">
<svg version="1.0" xmlns="http://www.w3.org/2000/svg"
 width="200.000000pt" height="200.000000pt" viewBox="0 0 200.000000 200.000000"
 preserveAspectRatio="xMidYMid meet">
<metadata>
Created by potrace 1.14, written by Peter Selinger 2001-2017
</metadata>
<g transform="translate(0.000000,200.000000) scale(0.100000,-0.100000)"
fill="#000000" stroke="none">
<path d="M757 1673 l-237 -137 0 -276 0 -276 240 -138 240 -138 240 138 240
138 0 276 0 276 -227 131 c-126 73 -235 134 -243 138 -9 3 -114 -52 -253 -132z
m218 -152 c23 -45 34 -46 50 -7 13 31 19 36 48 34 l32 -1 -31 -4 c-26 -3 -33
-10 -38 -35 -3 -18 -2 -34 2 -37 17 -11 33 -52 27 -70 -9 -28 14 -40 137 -70
117 -29 184 -57 208 -86 12 -14 12 -21 -1 -43 -21 -38 -55 -52 -126 -52 -78 0
-108 11 -159 62 -41 40 -42 40 -119 40 -74 0 -78 -1 -123 -39 -68 -58 -89 -66
-164 -67 -70 0 -106 15 -132 57 -27 42 45 84 219 127 65 16 122 35 127 42 4 7
8 27 8 44 0 17 7 37 15 44 16 13 20 47 7 66 -4 7 -18 14 -32 17 -25 4 -25 4 2
6 21 1 31 -6 43 -28z m97 -305 c4 -6 8 -14 8 -18 0 -12 -61 -20 -110 -13 -42
6 -48 9 -41 23 7 13 24 17 73 18 34 0 66 -5 70 -10z m21 -68 c7 -25 0 -28 -79
-28 -83 0 -104 6 -104 29 0 14 13 16 89 16 76 0 91 -3 94 -17z m-3 -73 c-14
-38 -180 -31 -180 8 0 9 27 12 94 12 89 0 93 -1 86 -20z m-43 -81 c-33 -28
-49 -30 -82 -8 -46 30 -37 39 39 36 l71 -4 -28 -24z"/>
<path d="M1050 607 c-18 -9 -25 -21 -25 -42 0 -27 5 -32 63 -54 44 -17 62 -29
60 -40 -4 -20 -69 -27 -98 -11 -28 15 -40 2 -16 -16 27 -19 120 -18 140 2 36
35 11 73 -63 95 -46 14 -63 35 -40 50 15 10 67 2 86 -13 7 -6 14 -5 18 2 7 11
-52 40 -82 40 -10 0 -29 -6 -43 -13z"/>
<path d="M807 603 c-7 -11 -67 -162 -67 -168 0 -15 30 -1 44 20 13 20 25 25
56 25 33 0 42 -4 52 -25 6 -14 19 -25 30 -25 10 0 18 1 18 3 0 2 -15 41 -34
88 -31 77 -36 84 -64 87 -17 2 -32 -1 -35 -5z m51 -56 c17 -46 16 -47 -22 -47
l-34 0 15 40 c9 22 19 40 23 40 3 0 11 -15 18 -33z"/>
<path d="M960 450 c0 -11 7 -20 15 -20 8 0 15 9 15 20 0 11 -7 20 -15 20 -8 0
-15 -9 -15 -20z"/>
<path d="M1214 459 c-10 -17 13 -36 27 -22 12 12 4 33 -11 33 -5 0 -12 -5 -16
-11z"/>
<path d="M1000 298 c0 -52 5 -89 12 -96 17 -17 48 -15 48 3 0 8 -4 15 -10 15
-5 0 -10 35 -12 77 -3 65 -6 78 -20 81 -16 3 -18 -6 -18 -80z"/>
<path d="M298 364 c-5 -4 -8 -45 -8 -91 l0 -83 69 0 c63 0 71 2 90 26 27 34
28 94 2 125 -15 19 -30 24 -82 27 -35 2 -67 0 -71 -4z m133 -60 c10 -28 3 -64
-15 -76 -6 -4 -30 -8 -53 -8 l-43 0 0 55 0 55 50 0 c45 0 52 -3 61 -26z"/>
<path d="M500 301 c-5 -11 -10 -32 -10 -46 0 -49 16 -65 65 -65 33 0 45 4 45
15 0 10 -11 15 -35 15 -33 0 -35 2 -35 35 0 34 1 35 41 35 49 0 50 -23 1 -28
-43 -4 -44 -32 -1 -32 42 0 69 17 69 43 0 35 -19 47 -77 47 -41 0 -54 -4 -63
-19z"/>
<path d="M662 258 c3 -60 4 -63 31 -66 44 -5 102 45 121 106 12 36 -17 27 -45
-15 -13 -20 -34 -43 -46 -51 -23 -14 -23 -14 -23 37 0 45 -3 51 -20 51 -19 0
-21 -5 -18 -62z"/>
<path d="M840 301 c-5 -11 -10 -32 -10 -46 0 -49 16 -65 65 -65 33 0 45 4 45
14 0 10 -13 16 -37 18 -35 3 -38 6 -38 33 0 28 3 30 44 33 32 2 42 0 39 -10
-3 -7 -19 -14 -36 -16 -43 -4 -44 -32 -1 -32 42 0 69 17 69 43 0 35 -19 47
-77 47 -41 0 -54 -4 -63 -19z"/>
<path d="M1092 308 c-16 -16 -16 -90 0 -106 16 -16 110 -16 126 0 7 7 12 30
12 53 0 23 -5 46 -12 53 -16 16 -110 16 -126 0z m103 -53 c0 -28 -2 -30 -40
-30 -30 0 -41 4 -43 18 -7 36 6 48 45 45 35 -3 38 -6 38 -33z"/>
<path d="M1273 313 c-18 -7 -18 -176 0 -171 8 3 13 30 15 76 l3 72 39 0 c39 0
40 -1 40 -35 0 -33 -2 -35 -35 -35 -24 0 -35 -5 -35 -15 0 -11 12 -15 45 -15
49 0 65 16 65 65 0 51 -16 65 -73 64 -29 0 -58 -3 -64 -6z"/>
<path d="M1442 308 c-7 -7 -12 -30 -12 -53 0 -23 5 -46 12 -53 18 -18 88 -16
88 3 0 10 -11 15 -35 15 -33 0 -35 2 -35 36 l0 35 43 -3 c52 -4 55 -22 4 -26
-42 -4 -47 -25 -8 -30 59 -9 102 36 71 73 -15 18 -110 21 -128 3z"/>
<path d="M1612 308 c-18 -18 -16 -118 2 -118 11 0 16 14 18 48 l3 47 43 3 c28
2 42 8 42 18 0 18 -90 20 -108 2z"/>
</g>
</svg>
